# xmcd
#
# Track frame offsets:
#  150
#  20069
#  32101
#  45211
#  56708
#  66472
#  81037
#  92731
#  110136
#  124570
#
# Disc length: 1821 seconds
#
# Revision: 0
# Processed by: cddbd v1.5.1PL2 Copyright (c) Steve Scherf et al.
# Submitted via: Collectorz.com_Music_Collector 6.10
#
DISCID=84071b0a
DTITLE=Moe Bandy - No Regrets
DYEAR=1988
DGENRE=
TTITLE0=Americana
TTITLE1=Ashes In The Wind
TTITLE2=The Beauty Of Love
TTITLE3=Just Fine With Me
TTITLE4=No Regrets
TTITLE5=I Just Can't Say No To You
TTITLE6=What Goes Around
TTITLE7=The Champion
TTITLE8=Hittin' Close To Home
TTITLE9=Nobody Gets Off In This Town
EXTD=
EXTT0=
EXTT1=
EXTT2=
EXTT3=
EXTT4=
EXTT5=
EXTT6=
EXTT7=
EXTT8=
EXTT9=
PLAYORDER=
